<svg width="200" height="200" viewBox="0 0 200 200" fill="none" xmlns="http://www.w3.org/2000/svg">
<rect width="200" height="200" fill="#545454"/>
<path fill-rule="evenodd" clip-rule="evenodd" d="M51.9029 121.653C57.7634 115.792 65.712 112.5 74 112.5H124C132.288 112.5 140.237 115.792 146.097 121.653C151.958 127.513 155.25 135.462 155.25 143.75V156.25C155.25 159.702 152.452 162.5 149 162.5C145.548 162.5 142.75 159.702 142.75 156.25V143.75C142.75 138.777 140.775 134.008 137.258 130.492C133.742 126.975 128.973 125 124 125H74C69.0272 125 64.2581 126.975 60.7417 130.492C57.2254 134.008 55.25 138.777 55.25 143.75V156.25C55.25 159.702 52.4518 162.5 49 162.5C45.5482 162.5 42.75 159.702 42.75 156.25V143.75C42.75 135.462 46.0424 127.513 51.9029 121.653Z" fill="white"/>
<path fill-rule="evenodd" clip-rule="evenodd" d="M99 50C88.6447 50 80.25 58.3947 80.25 68.75C80.25 79.1053 88.6447 87.5 99 87.5C109.355 87.5 117.75 79.1053 117.75 68.75C117.75 58.3947 109.355 50 99 50ZM67.75 68.75C67.75 51.4911 81.7411 37.5 99 37.5C116.259 37.5 130.25 51.4911 130.25 68.75C130.25 86.0089 116.259 100 99 100C81.7411 100 67.75 86.0089 67.75 68.75Z" fill="white"/>
</svg>
